<svg xmlns="http://www.w3.org/2000/svg" viewBox="0 0 107.02 131.45"><defs><style>.cls-1{fill:none;stroke:#000;stroke-miterlimit:10;}</style></defs><title>Asset 3</title><g id="Layer_2" data-name="Layer 2"><g id="buildings"><path class="cls-1" d="M80.31,22.89l-19.73-.62L60.7.74,1.77.5A17.1,17.1,0,0,0,.5,5.58c0,2,2.69,4.29,2.69,4.29a8.29,8.29,0,0,0,5.64,2.41A6.66,6.66,0,0,0,14,9.87s-.32-1.12,2.67-1.12,2.84.47,2.84.47V64.35H15.38L11.7,60.66H6.14V90.21h6.3V72.81H54.21v-7H49V61.65h5.44V36H81.87V52.37H80.08V98s-3-13.31-15.39-13.57S51.52,96.94,51.52,96.94s-.15,1.48-3.81,1.44-3.37-1.57-3.37-1.57V91.22H31.51v6.33h-7.9V131H47.79v-3.61H83.14v3.44h23.38l-.66-130h-25Z"/></g></g></svg>