<svg xmlns="http://www.w3.org/2000/svg" viewBox="0 0 1160.29 769.44"><defs><style>.cls-1{fill:none;stroke:#000;stroke-miterlimit:10;}</style></defs><title>Asset 1</title><g id="Layer_2" data-name="Layer 2"><g id="roads"><polygon class="cls-1" points="397.79 0.94 392.79 22.94 258.79 263.94 206.79 321.94 162.79 399.94 128.79 470.94 33.79 699.94 0.79 768.94 21.79 768.94 40.79 732.94 102.79 591.94 175.79 418.94 219.79 342.94 273.79 287.94 376.79 92.94 426.79 0.94 397.79 0.94"/><polygon class="cls-1" points="585.79 0.94 163.79 768.94 198.79 768.94 623.79 0.94 585.79 0.94"/><polygon class="cls-1" points="873.79 0.94 449.79 768.94 464.79 768.94 889.79 0.94 873.79 0.94"/><polygon class="cls-1" points="1159.79 489.94 1005.79 768.94 1018.79 768.94 1159.79 516.94 1159.79 489.94"/><polygon class="cls-1" points="1159.79 236.94 1159.79 254.94 877.79 768.94 863.79 768.94 1159.79 236.94"/><polygon class="cls-1" points="1154.79 0.94 833.79 582.94 823.79 628.94 829.79 768.94 838.79 768.94 832.79 628.94 837.79 597.94 1159.79 8.94 1159.79 0.94 1154.79 0.94"/><polygon class="cls-1" points="834.72 673.95 1005.79 768.94 985.79 768.94 835.19 684.97 834.72 673.95"/><polygon class="cls-1" points="837.79 597.94 1139.79 768.94 1159.79 768.94 1159.79 763.94 841.66 590.87 837.79 597.94"/><polygon class="cls-1" points="874.26 531.25 1159.79 691.94 1159.79 679.94 877.95 524.49 874.26 531.25"/><polygon class="cls-1" points="907.87 469.76 912.18 461.88 1159.79 599.94 1159.79 607.94 907.87 469.76"/><polygon class="cls-1" points="945.33 401.24 941.48 408.27 1159.79 529.94 1159.79 516.94 945.33 401.24"/><polygon class="cls-1" points="980.65 336.64 1159.79 438.94 1159.79 448.94 975.82 345.46 980.65 336.64"/><polygon class="cls-1" points="1014.24 275.19 1159.79 356.94 1159.79 367.94 1010.07 282.82 1014.24 275.19"/><polygon class="cls-1" points="1048.06 213.32 1159.79 277.94 1159.79 286.94 1043.57 221.55 1048.06 213.32"/><polygon class="cls-1" points="1159.79 194.94 1159.79 204.94 790.79 0.94 808.79 0.94 1159.79 194.94"/><polygon class="cls-1" points="1159.79 124.94 1159.79 98.94 1101.79 15.94 1096.79 3.94 1159.79 39.94 1159.79 23.94 1118.79 0.94 1087.79 0.94 1091.79 12.94 1155.79 111.94 1115.15 90.6 1111.4 97.46 1159.79 124.94"/><polygon class="cls-1" points="411.83 28.47 874.79 286.94 871.79 293.94 407.66 36.15 411.83 28.47"/><polygon class="cls-1" points="599.43 44.97 901.79 212.94 897.79 221.94 594.75 53.42 599.43 44.97"/><path class="cls-1" d="M644.79.94s15-1,17,0,229,128,234,133,16,17,19,27,5,20,4,28-59,159-59,159l-4,8-141,258-38,155h-10l41-158,141-258,61-159s1.85-12.55,0-19c-4-14-8-22-20-34C879.28,130.43,832,105.35,832,105.35Z"/><polygon class="cls-1" points="733.75 282.92 850.83 347.65 848.79 352.94 728.88 291.72 733.75 282.92"/><polygon class="cls-1" points="817.1 410.93 699.51 344.79 695 352.94 813.04 418.36 817.1 410.93"/><path class="cls-1" d="M628.29,473.5l118.54,66s-2.16,3.91-3.1,5.67-119.94-63.56-119.94-63.56Z"/><polygon class="cls-1" points="591.14 540.63 710.89 605.27 707.79 610.94 586.95 548.2 591.14 540.63"/><polygon class="cls-1" points="690.92 675.98 187.95 397.95 184.22 404.4 685.79 684.94 690.92 675.98"/><polygon class="cls-1" points="669.79 744.94 157.85 461.47 154.56 469.27 670.33 755.32 669.79 744.94"/><polygon class="cls-1" points="477.29 719.13 154.79 537.94 151.79 547.94 472.92 727.06 477.29 719.13"/><path class="cls-1" d="M130.79,603.94c5,3,289,165,289,165h-17l-276-156Z"/><path class="cls-1" d="M272.79,768.94l-163-89-14-11v-22l16-39,2-14-4-10-7,8,2,4-2,12-15,38v23s4,8,7,10,158,90,158,90Z"/><polygon class="cls-1" points="28.79 768.94 50.79 726.94 93.79 684.94 102.16 673.94 114.79 621.94 148.79 522.94 163.79 474.39 175.79 418.94 183.79 403.94 183.79 419.94 121.79 623.94 109.79 679.94 100.79 691.94 58.79 730.94 55.36 737.15 37.79 768.94 28.79 768.94"/><polygon class="cls-1" points="114.79 768.94 55.79 736.94 58.79 730.94 64.79 730.94 130.79 768.94 114.79 768.94"/><polygon class="cls-1" points="505.79 0.94 514.79 0.94 339.79 312.94 331.79 309.94 505.79 0.94"/><polygon class="cls-1" points="277.76 280.43 293.79 286.94 327.79 283.94 355.05 268.65 348.83 279.69 331.79 290.94 305.79 293.94 396.86 344.79 392.88 352.04 273.79 287.94 277.76 280.43"/><polygon class="cls-1" points="227.47 335.13 360.69 410.61 356.44 418.36 275.83 371.89 270.18 368.64 221.9 340.8 227.47 335.13"/><polygon class="cls-1" points="243.51 428.67 237.28 425.22 269.79 368.94 275.79 371.94 243.51 428.67"/></g></g></svg>